# Blender 4.0.1
# www.blender.org
mtllib tankcolor.mtl
o RightTrack
v 2.000000 0.400000 -2.000000
v 2.000000 -0.000000 -2.000000
v 2.000000 0.400000 -1.000000
v 2.000000 -0.000000 -1.000000
v -2.000000 0.400000 -2.000000
v -2.000000 -0.000000 -2.000000
v -2.000000 0.400000 -1.000000
v -2.000000 -0.000000 -1.000000
v 2.500000 0.300000 -1.750000
v 2.500000 0.100000 -1.750000
v 2.500000 0.300000 -1.250000
v 2.500000 0.100000 -1.250000
v -2.000000 -0.000000 -2.000000
v -2.000000 -0.000000 -1.000000
v -2.000000 0.400000 -1.000000
v -2.000000 0.400000 -2.000000
v -2.500000 0.100000 -1.750000
v -2.500000 0.100000 -1.250000
v -2.500000 0.300000 -1.250000
v -2.500000 0.300000 -1.750000
vn -0.0000 1.0000 -0.0000
vn -0.0000 -0.0000 1.0000
vn -0.0000 -1.0000 -0.0000
vn 0.4472 -0.0000 0.8944
vn -0.0000 -0.0000 -1.0000
vn 1.0000 -0.0000 -0.0000
vn 0.4472 -0.0000 -0.8944
vn 0.1961 -0.9806 -0.0000
vn 0.1961 0.9806 -0.0000
vn -0.4472 -0.0000 -0.8944
vn -1.0000 -0.0000 -0.0000
vn -0.1961 -0.9806 -0.0000
vn -0.1961 0.9806 -0.0000
vn -0.4472 -0.0000 0.8944
vt 0.625000 0.500000
vt 0.875000 0.500000
vt 0.875000 0.750000
vt 0.625000 0.750000
vt 0.375000 0.750000
vt 0.625000 1.000000
vt 0.375000 1.000000
vt 0.125000 0.500000
vt 0.125000 0.750000
vt 0.375000 0.500000
vt 0.375000 0.250000
vt 0.625000 0.250000
vt 0.375000 0.000000
vt 0.625000 0.000000
s 0
usemtl Material
f 1/1/1 5/2/1 7/3/1 3/4/1
f 4/5/2 3/4/2 7/6/2 8/7/2
f 6/8/1 8/9/1 14/9/1 13/8/1
f 6/8/3 2/10/3 4/5/3 8/9/3
f 3/4/4 4/5/4 12/5/4 11/4/4
f 6/11/5 5/12/5 1/1/5 2/10/5
f 10/10/6 9/1/6 11/4/6 12/5/6
f 2/10/7 1/1/7 9/1/7 10/10/7
f 4/5/8 2/10/8 10/10/8 12/5/8
f 1/1/9 3/4/9 11/4/9 9/1/9
f 16/12/10 13/11/10 17/11/10 20/12/10
f 7/3/1 5/2/1 16/2/1 15/3/1
f 5/12/1 6/11/1 13/11/1 16/12/1
f 8/7/1 7/6/1 15/6/1 14/7/1
f 18/13/11 19/14/11 20/12/11 17/11/11
f 13/8/12 14/9/12 18/9/12 17/8/12
f 15/3/13 16/2/13 20/2/13 19/3/13
f 14/7/14 15/6/14 19/6/14 18/7/14
o LeftTrack
v 2.000000 0.400000 1.000000
v 2.000000 -0.000000 1.000000
v 2.000000 0.400000 2.000000
v 2.000000 -0.000000 2.000000
v -2.000000 0.400000 1.000000
v -2.000000 -0.000000 1.000000
v -2.000000 0.400000 2.000000
v -2.000000 -0.000000 2.000000
v 2.500000 0.300000 1.250000
v 2.500000 0.100000 1.250000
v 2.500000 0.300000 1.750000
v 2.500000 0.100000 1.750000
v -2.000000 -0.000000 1.000000
v -2.000000 -0.000000 2.000000
v -2.000000 0.400000 2.000000
v -2.000000 0.400000 1.000000
v -2.500000 0.100000 1.250000
v -2.500000 0.100000 1.750000
v -2.500000 0.300000 1.750000
v -2.500000 0.300000 1.250000
vn -0.0000 1.0000 -0.0000
vn -0.0000 -0.0000 1.0000
vn -0.0000 -1.0000 -0.0000
vn 0.4472 -0.0000 0.8944
vn -0.0000 -0.0000 -1.0000
vn 1.0000 -0.0000 -0.0000
vn 0.4472 -0.0000 -0.8944
vn 0.1961 -0.9806 -0.0000
vn 0.1961 0.9806 -0.0000
vn -0.4472 -0.0000 -0.8944
vn -1.0000 -0.0000 -0.0000
vn -0.1961 -0.9806 -0.0000
vn -0.1961 0.9806 -0.0000
vn -0.4472 -0.0000 0.8944
vt 0.625000 0.500000
vt 0.875000 0.500000
vt 0.875000 0.750000
vt 0.625000 0.750000
vt 0.375000 0.750000
vt 0.625000 1.000000
vt 0.375000 1.000000
vt 0.125000 0.500000
vt 0.125000 0.750000
vt 0.375000 0.500000
vt 0.375000 0.250000
vt 0.625000 0.250000
vt 0.375000 0.000000
vt 0.625000 0.000000
s 0
usemtl Material
f 21/15/15 25/16/15 27/17/15 23/18/15
f 24/19/16 23/18/16 27/20/16 28/21/16
f 26/22/15 28/23/15 34/23/15 33/22/15
f 26/22/17 22/24/17 24/19/17 28/23/17
f 23/18/18 24/19/18 32/19/18 31/18/18
f 26/25/19 25/26/19 21/15/19 22/24/19
f 30/24/20 29/15/20 31/18/20 32/19/20
f 22/24/21 21/15/21 29/15/21 30/24/21
f 24/19/22 22/24/22 30/24/22 32/19/22
f 21/15/23 23/18/23 31/18/23 29/15/23
f 36/26/24 33/25/24 37/25/24 40/26/24
f 27/17/15 25/16/15 36/16/15 35/17/15
f 25/26/15 26/25/15 33/25/15 36/26/15
f 28/21/15 27/20/15 35/20/15 34/21/15
f 38/27/25 39/28/25 40/26/25 37/25/25
f 33/22/26 34/23/26 38/23/26 37/22/26
f 35/17/27 36/16/27 40/16/27 39/17/27
f 34/21/28 35/20/28 39/20/28 38/21/28
o BodyTank
v -2.000000 0.400000 1.500000
v -1.000000 1.200000 0.750000
v -2.000000 0.400000 -1.500000
v -1.000000 1.200000 -0.750000
v 2.000000 0.400000 1.500000
v 1.000000 1.200000 0.750000
v 2.000000 0.400000 -1.500000
v 1.000000 1.200000 -0.750000
vn -0.6247 0.7809 -0.0000
vn -0.0000 0.6839 -0.7295
vn 0.6247 0.7809 -0.0000
vn -0.0000 0.6839 0.7295
vn -0.0000 -1.0000 -0.0000
vn -0.0000 1.0000 -0.0000
vt 0.375000 0.000000
vt 0.625000 0.000000
vt 0.625000 0.250000
vt 0.375000 0.250000
vt 0.625000 0.500000
vt 0.375000 0.500000
vt 0.625000 0.750000
vt 0.375000 0.750000
vt 0.625000 1.000000
vt 0.375000 1.000000
vt 0.125000 0.500000
vt 0.125000 0.750000
vt 0.875000 0.500000
vt 0.875000 0.750000
s 0
usemtl Material.001
f 41/29/29 42/30/29 44/31/29 43/32/29
f 43/32/30 44/31/30 48/33/30 47/34/30
f 47/34/31 48/33/31 46/35/31 45/36/31
f 45/36/32 46/35/32 42/37/32 41/38/32
f 43/39/33 47/34/33 45/36/33 41/40/33
f 48/33/34 44/41/34 42/42/34 46/35/34
o TurretTank
v -0.300000 1.200000 0.300000
v -0.300000 1.799999 0.300000
v -0.300000 1.200000 -0.300000
v -0.300000 1.799999 -0.300000
v 0.300000 1.200000 0.300000
v 0.300000 1.799999 0.300000
v 0.300000 1.200000 -0.300000
v 0.300000 1.799999 -0.300000
v 1.000000 1.649999 -0.150000
v 1.000000 1.350000 -0.150000
v 1.000000 1.350000 0.150000
v 1.000000 1.649999 0.150000
v 1.000000 1.649999 -0.150000
v 1.000000 1.350000 -0.150000
v 1.000000 1.350000 0.150000
v 1.000000 1.649999 0.150000
v 3.000000 1.649999 -0.150000
v 3.000000 1.350000 -0.150000
v 3.000000 1.350000 0.150000
v 3.000000 1.649999 0.150000
vn -1.0000 -0.0000 -0.0000
vn -0.0000 -0.0000 -1.0000
vn 0.2095 -0.0000 0.9778
vn -0.0000 -0.0000 1.0000
vn -0.0000 -1.0000 -0.0000
vn -0.0000 1.0000 -0.0000
vn 0.2095 -0.9778 -0.0000
vn 0.2095 0.9778 -0.0000
vn 0.2095 -0.0000 -0.9778
vn 1.0000 -0.0000 -0.0000
vt 0.375000 0.000000
vt 0.625000 0.000000
vt 0.625000 0.250000
vt 0.375000 0.250000
vt 0.625000 0.500000
vt 0.375000 0.500000
vt 0.625000 0.750000
vt 0.375000 0.750000
vt 0.625000 1.000000
vt 0.375000 1.000000
vt 0.125000 0.500000
vt 0.125000 0.750000
vt 0.875000 0.500000
vt 0.875000 0.750000
s 0
usemtl Material.002
f 49/43/35 50/44/35 52/45/35 51/46/35
f 51/46/36 52/45/36 56/47/36 55/48/36
f 54/49/37 53/50/37 59/50/37 60/49/37
f 53/50/38 54/49/38 50/51/38 49/52/38
f 51/53/39 55/48/39 53/50/39 49/54/39
f 56/47/40 52/55/40 50/56/40 54/49/40
f 57/47/40 60/49/40 64/49/40 61/47/40
f 53/50/41 55/48/41 58/48/41 59/50/41
f 56/47/42 54/49/42 60/49/42 57/47/42
f 55/48/43 56/47/43 57/47/43 58/48/43
f 61/47/40 64/49/40 68/49/40 65/47/40
f 58/48/40 57/47/40 61/47/40 62/48/40
f 60/49/40 59/50/40 63/50/40 64/49/40
f 59/50/40 58/48/40 62/48/40 63/50/40
f 66/48/44 65/47/44 68/49/44 67/50/44
f 62/48/36 61/47/36 65/47/36 66/48/36
f 64/49/38 63/50/38 67/50/38 68/49/38
f 63/50/39 62/48/39 66/48/39 67/50/39
