# Blender 4.0.1
# www.blender.org
mtllib TankTurret.mtl
o TurretTank
v -0.300000 1.800000 0.300000
v -0.300000 1.800000 -0.300000
v 0.300000 1.800000 0.300000
v 0.300000 1.800000 -0.300000
v -0.300000 1.800000 0.300000
v -0.300000 1.800000 -0.300000
v 0.300000 1.800000 -0.300000
v 0.300000 1.800000 0.300000
v -0.300000 1.200000 -0.300000
v -0.300000 1.200000 0.300000
v -0.300000 1.800000 0.300000
v -0.300000 1.800000 -0.300000
v 0.300000 1.200000 -0.300000
v 0.300000 1.800000 -0.300000
v 0.300000 1.200000 0.300000
v 0.300000 1.800000 0.300000
v -0.090000 1.590000 -0.600000
v -0.090000 1.410000 -0.600000
v 0.090000 1.410000 -0.600000
v 0.090000 1.590000 -0.600000
v -0.090000 1.410000 0.600000
v -0.090000 1.590000 0.600000
v 0.090000 1.590000 0.600000
v 0.090000 1.410000 0.600000
vn -0.0000 1.0000 -0.0000
vn -1.0000 -0.0000 -0.0000
vn 0.8192 -0.0000 -0.5735
vn 1.0000 -0.0000 -0.0000
vn -0.0000 0.8192 0.5735
vn -0.0000 -1.0000 -0.0000
vn -0.0000 -0.0000 -1.0000
vn -0.0000 -0.8192 -0.5735
vn -0.0000 0.8192 -0.5735
vn -0.8192 -0.0000 -0.5735
vn -0.0000 -0.0000 1.0000
vn 0.8192 -0.0000 0.5735
vn -0.8192 -0.0000 0.5735
vn -0.0000 -0.8192 0.5735
vt 0.625000 0.750000
vt 0.625000 1.000000
vt 0.625000 0.000000
vt 0.625000 0.250000
vt 0.625000 0.500000
vt 0.875000 0.500000
vt 0.875000 0.750000
vt 0.375000 0.000000
vt 0.375000 0.250000
vt 0.375000 0.500000
vt 0.375000 0.750000
vt 0.125000 0.500000
vt 0.125000 0.750000
vt 0.375000 1.000000
s 0
usemtl Material.004
f 3/1/1 1/2/1 11/2/1 16/1/1
f 1/3/1 2/4/1 12/4/1 11/3/1
f 4/5/1 3/1/1 16/1/1 14/5/1
f 2/4/1 4/5/1 14/5/1 12/4/1
f 4/5/1 2/4/1 6/4/1 7/5/1
f 7/5/1 6/6/1 5/7/1 8/1/1
f 3/1/1 4/5/1 7/5/1 8/1/1
f 2/4/1 1/3/1 5/3/1 6/4/1
f 1/2/1 3/1/1 8/1/1 5/2/1
f 10/8/2 11/3/2 12/4/2 9/9/2
f 14/5/3 13/10/3 19/10/3 20/5/3
f 13/10/4 14/5/4 16/1/4 15/11/4
f 16/1/5 11/2/5 22/2/5 23/1/5
f 9/12/6 13/10/6 15/11/6 10/13/6
f 18/9/7 17/4/7 20/5/7 19/10/7
f 13/10/8 9/12/8 18/12/8 19/10/8
f 12/4/9 14/5/9 20/5/9 17/4/9
f 9/9/10 12/4/10 17/4/10 18/9/10
f 24/11/11 23/1/11 22/2/11 21/14/11
f 15/11/12 16/1/12 23/1/12 24/11/12
f 11/3/13 10/8/13 21/8/13 22/3/13
f 10/13/14 15/11/14 24/11/14 21/13/14
